<svg xmlns="http://www.w3.org/2000/svg" viewBox="0 0 4007.3 3276.5"><defs><style>.a{fill:#3f3f3f;}.a,.b,.c,.d,.e,.f,.g,.h,.i{stroke:#000;stroke-miterlimit:10;}.a,.c,.d,.e,.f,.g,.h{stroke-width:2px;}.b{fill:#efefef;}.b,.i{stroke-width:0.75px;}.c{fill:#ff0;}.aa,.d,.q{fill:#fff;}.e{fill:#29abe2;}.f{fill:#ed1c24;}.g{fill:#93278f;}.h{fill:lime;}.j{fill:#f39;}.k{fill:#7f7f7f;}.l{fill:#ff9901;}.m{fill:#01fdff;}.n{fill:#963;}.o{isolation:isolate;font-size:72px;fill:#f2eded;font-family:ArialMT, Arial;}.p{letter-spacing:-0.04em;}.aa,.q{font-size:48px;font-family:MyriadPro-Regular, Myriad Pro;}.r{letter-spacing:-0.04em;}.s{letter-spacing:0em;}.t{letter-spacing:0.01em;}.u{letter-spacing:0em;}.v{letter-spacing:0em;}.w{letter-spacing:-0.01em;}.x{letter-spacing:-0.01em;}.y{letter-spacing:0em;}.z{fill:#f7f78d;}.aa{letter-spacing:0.03em;}.ab{letter-spacing:-0.03em;}.ac{letter-spacing:0em;}</style></defs><title>Caixa de emenda 20-export</title><rect class="a" x="1" y="1" width="4005.3" height="3274.5"/><rect class="b" x="3198.3" y="1716.75" width="47.1" height="30.1"/><rect class="b" x="3198.3" y="1814.65" width="47.1" height="30.1"/><rect class="b" x="3198.3" y="1325.15" width="47.1" height="30.1"/><rect class="b" x="3198.3" y="1423.05" width="47.1" height="30.1"/><rect class="b" x="3198.3" y="1520.95" width="47.1" height="30.1"/><rect class="b" x="3198.3" y="1618.85" width="47.1" height="30.1"/><rect class="c" x="3244" y="1414.55" width="201.4" height="44.4"/><rect class="d" x="3244" y="1512.75" width="201.4" height="44.4"/><rect class="e" x="3244" y="1610.75" width="201.4" height="44.4"/><rect class="f" x="3244" y="1708.95" width="201.4" height="44.4"/><rect class="g" x="3244" y="1807.05" width="201.4" height="44.4"/><rect class="h" x="3244" y="1316.45" width="201.4" height="44.4"/><rect class="b" x="3445" y="1296.45" width="345.7" height="1172"/><rect class="i" x="3554.4" y="1228.35" width="451.9" height="1285.1"/><rect class="b" x="3198.3" y="2293.75" width="47.1" height="30.1"/><rect class="b" x="3198.3" y="2391.65" width="47.1" height="30.1"/><rect class="b" x="3198.3" y="1902.15" width="47.1" height="30.1"/><rect class="b" x="3198.3" y="2000.05" width="47.1" height="30.1"/><rect class="b" x="3198.3" y="2097.95" width="47.1" height="30.1"/><rect class="b" x="3198.3" y="2195.85" width="47.1" height="30.1"/><rect class="j" x="3244" y="1991.55" width="201.4" height="44.4"/><rect x="3244" y="2089.75" width="201.4" height="44.4"/><rect class="k" x="3244" y="2187.75" width="201.4" height="44.4"/><rect class="l" x="3244" y="2285.95" width="201.4" height="44.4"/><rect class="m" x="3244" y="2384.05" width="201.4" height="44.4"/><rect class="n" x="3244" y="1893.45" width="201.4" height="44.4"/><text class="o" transform="translate(3780.35 1716.75) rotate(90)">Jacob <tspan class="p" x="212.13" y="0">W</tspan><tspan x="277.42" y="0">agner</tspan></text><polygon class="b" points="1441.24 2629.92 1463.44 2629.92 1463.44 2650.02 1441.24 2650.02 1441.24 2629.92"/><polygon class="g" points="1435.72 2797.11 1435.72 2649.11 1469.24 2648.91 1469.24 2796.91 1435.72 2797.11"/><polygon class="b" points="1369.29 2629.92 1391.49 2629.92 1391.49 2650.02 1369.29 2650.02 1369.29 2629.92"/><polygon class="f" points="1363.77 2797.11 1363.77 2649.11 1397.29 2648.91 1397.29 2796.91 1363.77 2797.11"/><polygon class="b" points="1297.44 2629.92 1319.64 2629.92 1319.64 2650.02 1297.44 2650.02 1297.44 2629.92"/><polygon class="e" points="1291.92 2797.11 1291.92 2649.11 1325.44 2648.91 1325.44 2796.91 1291.92 2797.11"/><polygon class="b" points="1225.44 2629.92 1247.64 2629.92 1247.64 2650.02 1225.44 2650.02 1225.44 2629.92"/><polygon class="d" points="1219.92 2797.11 1219.92 2649.11 1253.44 2648.91 1253.44 2796.91 1219.92 2797.11"/><polygon class="b" points="1153.44 2629.92 1175.64 2629.92 1175.64 2650.02 1153.44 2650.02 1153.44 2629.92"/><polygon class="c" points="1147.92 2797.11 1147.92 2649.11 1181.44 2648.91 1181.44 2796.91 1147.92 2797.11"/><polygon class="b" points="1081.17 2629.92 1103.37 2629.92 1103.37 2650.02 1081.17 2650.02 1081.17 2629.92"/><polygon class="h" points="1075.65 2797.11 1075.65 2649.11 1109.17 2648.91 1109.17 2796.91 1075.65 2797.11"/><rect class="b" x="1059.11" y="2790.59" width="438.67" height="155.98"/><rect class="i" x="1015.6" y="2942.3" width="519.38" height="332"/><polygon class="b" points="1441.24 625.28 1463.44 625.28 1463.44 645.38 1441.24 645.38 1441.24 625.28"/><polygon class="g" points="1469.24 478.39 1469.24 626.39 1435.72 626.19 1435.72 478.19 1469.24 478.39"/><polygon class="b" points="1369.29 625.28 1391.49 625.28 1391.49 645.38 1369.29 645.38 1369.29 625.28"/><polygon class="f" points="1397.29 478.39 1397.29 626.39 1363.77 626.19 1363.77 478.19 1397.29 478.39"/><polygon class="b" points="1297.44 625.28 1319.64 625.28 1319.64 645.38 1297.44 645.38 1297.44 625.28"/><polygon class="e" points="1325.44 478.39 1325.44 626.39 1291.92 626.19 1291.92 478.19 1325.44 478.39"/><polygon class="b" points="1225.44 625.28 1247.64 625.28 1247.64 645.38 1225.44 645.38 1225.44 625.28"/><polygon class="d" points="1253.44 478.39 1253.44 626.39 1219.92 626.19 1219.92 478.19 1253.44 478.39"/><polygon class="b" points="1153.44 625.28 1175.64 625.28 1175.64 645.38 1153.44 645.38 1153.44 625.28"/><polygon class="c" points="1181.44 478.39 1181.44 626.39 1147.92 626.19 1147.92 478.19 1181.44 478.39"/><polygon class="b" points="1081.17 625.28 1103.37 625.28 1103.37 645.38 1081.17 645.38 1081.17 625.28"/><polygon class="h" points="1109.17 478.39 1109.17 626.39 1075.65 626.19 1075.65 478.19 1109.17 478.39"/><rect class="b" x="1059.11" y="328.72" width="438.67" height="155.98"/><rect class="i" x="1015.6" y="1" width="519.38" height="332"/><polygon class="g" points="1435.58 2631.21 1435.58 2384.05 3198.3 2384.05 3198.3 2427.63 1469.11 2428.45 1469.11 2631.01 1435.58 2631.21"/><polygon class="f" points="1363.77 2630.12 1363.77 2285.95 3198.3 2285.95 3198.3 2329.53 1397.29 2330.35 1397.29 2629.92 1363.77 2630.12"/><polygon class="e" points="1291.92 2630.12 1293.1 2187.75 3198.3 2187.75 3198.3 2231.33 1326.63 2232.15 1325.44 2629.92 1291.92 2630.12"/><polygon class="d" points="1219.92 2630.12 1219.92 2089.75 3198.3 2089.75 3198.3 2133.33 1253.44 2134.15 1253.44 2629.92 1219.92 2630.12"/><polygon class="c" points="1147.92 2630.12 1148.46 1991.55 3198.3 1991.55 3198.3 2035.13 1181.99 2035.95 1181.44 2629.92 1147.92 2630.12"/><polygon class="h" points="1109.17 645.48 1109.17 1316.45 3198.3 1317.27 3198.3 1360.85 1075.65 1360.85 1075.65 645.28 1109.17 645.48"/><text class="q" transform="translate(1109.17 2998.89)"><tspan class="r">T</tspan><tspan class="s" x="21.7" y="0">r</tspan><tspan x="37.58" y="0">istão </tspan><tspan class="t" x="143.37" y="0">M</tspan><tspan class="u" x="182.25" y="0">o</tspan><tspan class="v" x="208.6" y="0">n</tspan><tspan class="w" x="235.05" y="0">t</tspan><tspan x="250.65" y="0">ei</tspan><tspan class="x" x="285.93" y="0">r</tspan><tspan x="301.15" y="0">o</tspan></text><text class="q" transform="translate(1126.58 3254.56)"><tspan class="s">C</tspan><tspan x="28.03" y="0">ASA DE PED</tspan><tspan class="y" x="267.5" y="0">R</tspan><tspan x="293.56" y="0">A</tspan></text><polygon class="z" points="1336.74 3133.11 1278.44 3179.93 1223.85 3133.11 1245.35 3133.11 1245.35 3070.97 1311.54 3070.97 1311.54 3133.11 1336.74 3133.11"/><text class="aa" transform="translate(1236.68 224.11)">C<tspan class="ab" x="29.18" y="0">T</tspan><tspan class="ac" x="51.74" y="0">O</tspan></text></svg>